<svg xmlns="http://www.w3.org/2000/svg" viewBox="0 0 512 512" width="32" height="32">
  <path d="M 296.0 266.5 C 296.1 265.8, 296.6 264.0, 296.7 262.6 C 296.8 261.3, 296.8 259.8, 296.6 258.4 C 296.4 257.0, 296.0 255.5, 295.5 254.0 C 294.9 252.5, 294.2 251.0, 293.4 249.6 C 292.5 248.2, 291.4 246.7, 290.2 245.4 C 289.0 244.1, 287.6 242.8, 286.1 241.7 C 284.5 240.6, 282.8 239.5, 281.0 238.6 C 279.2 237.8, 277.2 237.0, 275.1 236.4 C 273.0 235.9, 270.8 235.5, 268.6 235.3 C 266.3 235.1, 263.9 235.1, 261.6 235.3 C 259.2 235.6, 256.7 236.0, 254.3 236.7 C 251.9 237.4, 249.5 238.3, 247.1 239.4 C 244.7 240.6, 242.4 242.0, 240.1 243.6 C 237.9 245.2, 235.7 247.1, 233.7 249.2 C 231.7 251.2, 229.8 253.5, 228.1 256.0 C 226.4 258.5, 224.9 261.2, 223.6 264.1 C 222.3 266.9, 221.2 270.0, 220.4 273.1 C 219.6 276.2, 219.0 279.6, 218.7 282.9 C 218.4 286.3, 218.4 289.8, 218.7 293.3 C 219.0 296.8, 219.6 300.3, 220.5 303.9 C 221.5 307.4, 222.7 310.9, 224.2 314.3 C 225.8 317.8, 227.6 321.2, 229.8 324.4 C 232.0 327.6, 234.5 330.7, 237.2 333.6 C 240.0 336.6, 243.0 339.3, 246.3 341.8 C 249.6 344.3, 253.2 346.6, 257.0 348.5 C 260.8 350.5, 264.8 352.2, 269.0 353.6 C 273.2 354.9, 277.6 356.0, 282.1 356.6 C 286.5 357.3, 291.2 357.6, 295.8 357.5 C 300.4 357.4, 305.2 356.9, 309.9 356.0 C 314.6 355.2, 319.3 353.9, 323.9 352.2 C 328.5 350.5, 333.1 348.4, 337.4 345.9 C 341.8 343.5, 346.1 340.6, 350.1 337.3 C 354.1 334.1, 357.9 330.4, 361.4 326.5 C 364.9 322.6, 368.2 318.2, 371.1 313.7 C 373.9 309.1, 376.5 304.2, 378.7 299.1 C 380.8 294.0, 382.6 288.6, 383.9 283.1 C 385.2 277.5, 386.1 271.8, 386.5 266.0 C 386.9 260.3, 386.8 254.3, 386.2 248.4 C 385.7 242.5, 384.6 236.6, 383.1 230.7 C 381.5 224.9, 379.5 219.0, 376.9 213.4 C 374.4 207.8, 371.4 202.2, 367.9 197.0 C 364.4 191.7, 360.4 186.7, 356.0 182.0 C 351.7 177.3, 346.8 172.8, 341.6 168.8 C 336.4 164.8, 330.8 161.1, 324.9 157.9 C 319.0 154.8, 312.8 152.0, 306.3 149.8 C 299.9 147.6, 293.1 145.8, 286.3 144.7 C 279.5 143.5, 272.4 142.9, 265.3 142.8 C 258.3 142.8, 251.0 143.3, 243.9 144.4 C 236.8 145.6, 229.7 147.3, 222.7 149.6 C 215.8 151.9, 208.9 154.8, 202.3 158.3 C 195.7 161.7, 189.2 165.8, 183.2 170.4 C 177.1 174.9, 171.3 180.1, 166.0 185.7 C 160.7 191.2, 155.7 197.3, 151.2 203.8 C 146.8 210.3, 142.8 217.2, 139.5 224.4 C 136.1 231.7, 133.2 239.3, 131.0 247.1 C 128.8 254.9, 127.2 263.0, 126.3 271.2 C 125.4 279.3, 125.1 287.7, 125.5 296.1 C 125.9 304.4, 127.0 312.9, 128.8 321.2 C 130.6 329.4, 133.1 337.8, 136.3 345.8 C 139.4 353.8, 145.8 365.3, 147.7 369.2" fill="none" stroke="#c8723a" stroke-width="40" stroke-linecap="round"/>
</svg>